<?xml version="1.0" encoding="UTF-8"?>
<!-- Generated by Pixelmator Pro 3.1.1 -->
<svg width="218" height="40" viewBox="0 0 218 40" xmlns="http://www.w3.org/2000/svg" xmlns:xlink="http://www.w3.org/1999/xlink">
    <path id="Path" fill="#ffffff" stroke="none" d="M 122.355003 29.5238 L 127.017998 29.5238 L 127.017998 11.9352 L 122.355003 11.9352 L 122.355003 29.5238 Z M 122.355003 9.192379 L 127.017998 9.192379 L 127.017998 5.009521 L 122.355003 5.009521 L 122.355003 9.192379 Z"/>
    <path id="path1" fill="#ffffff" stroke="none" d="M 130.022995 35.283798 L 134.686005 35.283798 L 134.686005 27.5352 L 134.753998 27.5352 C 135.748001 29.0438 137.360001 30.038099 139.828003 30.038099 C 144.354004 30.038099 147.440002 26.438101 147.440002 20.7467 C 147.440002 15.260899 144.457001 11.4552 139.794006 11.4552 C 137.393997 11.4552 135.748001 12.5867 134.617004 14.129501 L 134.514008 14.129501 L 134.514008 11.9352 L 130.022995 11.9352 L 130.022995 35.283798 Z M 138.834 26.163799 C 136.057007 26.163799 134.582993 24.072399 134.582993 20.883801 C 134.582993 17.7295 135.748001 15.2267 138.662994 15.2267 C 141.542999 15.2267 142.707993 17.5581 142.707993 20.883801 C 142.707993 24.209499 141.199997 26.163799 138.834 26.163799 Z"/>
    <path id="path2" fill="#ffffff" stroke="none" d="M 156.740997 30.038099 C 161.130005 30.038099 164.147003 27.912399 164.147003 24.380899 C 164.147003 20.266701 160.889999 19.4438 157.940994 18.8267 C 155.438004 18.312401 153.106995 18.1752 153.106995 16.6667 C 153.106995 15.3981 154.307007 14.7124 156.123993 14.7124 C 158.113007 14.7124 159.313004 15.3981 159.518005 17.2838 L 163.735001 17.2838 C 163.393005 13.752399 160.820999 11.4552 156.192993 11.4552 C 152.181 11.4552 149.026993 13.2724 149.026993 17.0781 C 149.026993 20.9181 152.113007 21.7752 155.266998 22.392401 C 157.667007 22.8724 159.895004 23.0438 159.895004 24.723801 C 159.895004 25.958099 158.729996 26.7467 156.673004 26.7467 C 154.580994 26.7467 153.141006 25.8552 152.832993 23.832399 L 148.513 23.832399 C 148.787003 27.5695 151.632996 30.038099 156.740997 30.038099 Z"/>
    <path id="path3" fill="#ffffff" stroke="none" d="M 181.850006 29.5238 L 181.850006 11.9352 L 177.186996 11.9352 L 177.186996 22.083799 C 177.186996 24.415199 175.850006 26.0609 173.656006 26.0609 C 171.667007 26.0609 170.742004 24.929501 170.742004 22.8724 L 170.742004 11.9352 L 166.113007 11.9352 L 166.113007 23.6609 C 166.113007 27.5009 168.307007 30.003799 172.216003 30.003799 C 174.684998 30.003799 176.056 29.0781 177.255997 27.4667 L 177.358994 27.4667 L 177.358994 29.5238 L 181.850006 29.5238 Z"/>
    <path id="path4" fill="#ffffff" stroke="none" d="M 184.865997 29.5238 L 189.529007 29.5238 L 189.529007 19.3067 C 189.529007 16.975201 190.798004 15.4667 192.684006 15.4667 C 194.397995 15.4667 195.391998 16.495199 195.391998 18.483801 L 195.391998 29.5238 L 200.054993 29.5238 L 200.054993 19.3067 C 200.054993 16.975201 201.255005 15.4667 203.209 15.4667 C 204.923996 15.4667 205.917999 16.495199 205.917999 18.483801 L 205.917999 29.5238 L 210.580994 29.5238 L 210.580994 17.6952 C 210.580994 13.8552 208.488998 11.4552 204.785995 11.4552 C 202.557999 11.4552 200.705994 12.620899 199.505997 14.540901 L 199.438004 14.540901 C 198.580994 12.689499 196.798004 11.4552 194.569 11.4552 C 192.134995 11.4552 190.421005 12.689499 189.460999 14.3009 L 189.358002 14.3009 L 189.358002 11.9352 L 184.865997 11.9352 L 184.865997 29.5238 Z"/>
    <path id="path5" fill="#ffffff" stroke="none" d="M 0.824158 29.5238 L 5.48701 29.5238 L 5.48701 5.009521 L 0.824158 5.009521 L 0.824158 29.5238 Z"/>
    <path id="path6" fill="#ffffff" stroke="none" d="M 16.888399 30.038099 C 22.3398 30.038099 26.0769 25.992399 26.0769 20.7467 C 26.0769 15.5009 22.3398 11.4552 16.888399 11.4552 C 11.4369 11.4552 7.69978 15.5009 7.69978 20.7467 C 7.69978 25.992399 11.4369 30.038099 16.888399 30.038099 Z M 16.888399 26.472401 C 14.0084 26.472401 12.4312 24.1752 12.4312 20.7467 C 12.4312 17.3181 14.0084 14.9867 16.888399 14.9867 C 19.7341 14.9867 21.345501 17.3181 21.345501 20.7467 C 21.345501 24.1752 19.7341 26.472401 16.888399 26.472401 Z"/>
    <path id="path7" fill="#ffffff" stroke="none" d="M 35.993 35.5238 C 38.598701 35.5238 40.861599 34.9067 42.3358 33.535198 C 43.638699 32.335201 44.427299 30.655199 44.427299 28.186701 L 44.427299 11.9352 L 39.935902 11.9352 L 39.935902 13.786701 L 39.867298 13.786701 C 38.804401 12.312401 37.193001 11.4552 34.998699 11.4552 C 30.541599 11.4552 27.3873 14.815201 27.3873 20.0609 C 27.3873 25.3752 31.227301 28.460899 35.135899 28.460899 C 37.364399 28.460899 38.701599 27.5695 39.730099 26.403799 L 39.833 26.403799 L 39.833 28.323799 C 39.833 30.723801 38.5644 31.992399 35.9244 31.992399 C 33.7644 31.992399 32.7701 31.135201 32.393002 30.038099 L 27.7644 30.038099 C 28.2444 33.466702 31.193001 35.5238 35.993 35.5238 Z M 35.9244 24.723801 C 33.524399 24.723801 31.9473 22.975201 31.9473 19.992399 C 31.9473 17.0438 33.524399 15.1924 35.890099 15.1924 C 38.701599 15.1924 40.073002 17.3867 40.073002 19.958099 C 40.073002 22.563801 38.873001 24.723801 35.9244 24.723801 Z"/>
    <path id="path8" fill="#ffffff" stroke="none" d="M 55.761101 30.038099 C 61.212502 30.038099 64.949699 25.992399 64.949699 20.7467 C 64.949699 15.5009 61.212502 11.4552 55.761101 11.4552 C 50.3097 11.4552 46.572498 15.5009 46.572498 20.7467 C 46.572498 25.992399 50.3097 30.038099 55.761101 30.038099 Z M 55.761101 26.472401 C 52.8811 26.472401 51.304001 24.1752 51.304001 20.7467 C 51.304001 17.3181 52.8811 14.9867 55.761101 14.9867 C 58.6068 14.9867 60.2183 17.3181 60.2183 20.7467 C 60.2183 24.1752 58.6068 26.472401 55.761101 26.472401 Z"/>
    <path id="path9" fill="#ffffff" stroke="none" d="M 212.274994 9.047619 C 212.274994 8.25864 212.914993 7.619049 213.703995 7.619049 L 216.561005 7.619049 C 217.350006 7.619049 217.990005 8.25864 217.990005 9.047619 C 217.990005 9.836601 217.350006 10.4762 216.561005 10.4762 L 213.703995 10.4762 C 212.914993 10.4762 212.274994 9.836601 212.274994 9.047619 Z"/>
    <path id="path10" fill="#ffffff" fill-rule="evenodd" stroke="none" d="M 93.227699 0 C 104.273003 0 113.227997 8.954311 113.227997 20 C 113.227997 31.0457 104.273003 40 93.227699 40 C 82.181999 40 73.227699 31.0457 73.227699 20 C 73.227699 8.954311 82.181999 0 93.227699 0 Z M 92.504799 1.49659 C 90.223099 1.817692 88.050499 3.651081 86.363998 6.7174 C 85.874802 7.606831 85.433403 8.58946 85.048798 9.65044 C 87.342003 9.074169 89.861099 8.734421 92.504799 8.68187 L 92.504799 1.49659 Z M 83.358398 10.1308 C 83.8368 8.62958 84.421898 7.248402 85.097198 6.020649 C 85.933197 4.500591 86.9254 3.18795 88.043297 2.179771 C 81.964401 3.945229 77.172897 8.73679 75.407402 14.815701 C 76.415604 13.6978 77.728203 12.705601 79.248299 11.8696 C 80.476097 11.1943 81.857201 10.6091 83.358398 10.1308 Z M 82.878098 11.8211 C 82.301804 14.1143 81.962097 16.6334 81.9095 19.2771 L 74.724197 19.2771 C 75.045303 16.995399 76.8787 14.8228 79.945099 13.1364 C 80.834503 12.6472 81.817101 12.205799 82.878098 11.8211 Z M 83.355598 19.2771 C 83.415298 16.392 83.830704 13.683399 84.517899 11.290199 C 86.911102 10.603001 89.619698 10.187599 92.504799 10.127899 L 92.504799 13.250801 C 91.428497 16.006201 89.233299 18.2012 86.477798 19.2771 L 83.355598 19.2771 Z M 81.9095 20.7229 L 74.724197 20.7229 C 75.045303 23.004601 76.8787 25.177099 79.945099 26.8636 C 80.834503 27.3528 81.817101 27.794201 82.878098 28.1789 C 82.301804 25.8857 81.962097 23.3666 81.9095 20.7229 Z M 84.517899 28.709801 C 83.830704 26.316601 83.415298 23.608 83.355598 20.7229 L 86.477798 20.7229 C 89.233299 21.7988 91.428497 23.993799 92.504799 26.749201 L 92.504799 29.872101 C 89.619698 29.812401 86.911102 29.396999 84.517899 28.709801 Z M 83.358398 29.8692 C 81.857201 29.3909 80.476097 28.8057 79.248299 28.1304 C 77.728203 27.294399 76.415604 26.3022 75.407402 25.184299 C 77.172897 31.263201 81.964401 36.054798 88.043297 37.820202 C 86.9254 36.812 85.933197 35.499401 85.097198 33.979301 C 84.421898 32.751598 83.8368 31.370399 83.358398 29.8692 Z M 92.504799 38.503399 C 90.223099 38.182301 88.050499 36.3489 86.363998 33.2826 C 85.874802 32.3932 85.433403 31.4105 85.048798 30.3496 C 87.342003 30.9258 89.861099 31.2656 92.504799 31.3181 L 92.504799 38.503399 Z M 98.412003 37.820202 C 99.5299 36.812 100.522003 35.499401 101.358002 33.979301 C 102.032997 32.751598 102.619003 31.370399 103.097 29.8692 C 104.598 29.3909 105.978996 28.8057 107.207001 28.1304 C 108.726997 27.294399 110.040001 26.3022 111.047997 25.184299 C 109.281998 31.263201 104.490997 36.054798 98.412003 37.820202 Z M 101.406998 30.3496 C 101.022003 31.4105 100.580002 32.3932 100.091003 33.2826 C 98.4048 36.3489 96.232201 38.182301 93.9505 38.503399 L 93.9505 31.3181 C 96.5942 31.2656 99.113297 30.9258 101.406998 30.3496 Z M 103.577003 28.1789 C 104.638 27.794201 105.621002 27.3528 106.510002 26.8636 C 109.577003 25.1772 111.410004 23.004601 111.731003 20.7229 L 104.545998 20.7229 C 104.492996 23.3666 104.153 25.8857 103.577003 28.1789 Z M 103.099998 20.7229 C 103.040001 23.608 102.625 26.316601 101.936996 28.709801 C 99.544197 29.396999 96.835602 29.812401 93.9505 29.872101 L 93.9505 26.751499 C 95.026497 23.9951 97.222198 21.799101 99.978401 20.7229 L 103.099998 20.7229 Z M 104.545998 19.2771 L 111.731003 19.2771 C 111.410004 16.995399 109.577003 14.8228 106.510002 13.1364 C 105.621002 12.6472 104.638 12.205799 103.577003 11.8211 C 104.153 14.1143 104.492996 16.6334 104.545998 19.2771 Z M 101.936996 11.290199 C 102.625 13.683399 103.040001 16.392 103.099998 19.2771 L 99.9785 19.2771 C 97.222198 18.200899 95.026497 16.0049 93.9505 13.248501 L 93.9505 10.127899 C 96.835602 10.187599 99.544197 10.603001 101.936996 11.290199 Z M 103.097 10.1308 C 104.598 10.6091 105.978996 11.1943 107.207001 11.8696 C 108.726997 12.705601 110.040001 13.6978 111.047997 14.815701 C 109.281998 8.73679 104.490997 3.945229 98.412003 2.179771 C 99.5299 3.18795 100.522003 4.500591 101.358002 6.020649 C 102.032997 7.248402 102.619003 8.62958 103.097 10.1308 Z M 93.9505 1.49659 C 96.232201 1.817692 98.4048 3.651081 100.091003 6.7174 C 100.580002 7.606842 101.022003 8.58946 101.406998 9.65044 C 99.113297 9.074169 96.5942 8.734421 93.9505 8.68187 L 93.9505 1.49659 Z"/>
</svg>
